<svg width="158" height="79" viewBox="0 0 158 79" fill="none" xmlns="http://www.w3.org/2000/svg">
<g clip-path="url(#clip0_149_18)">
<path d="M1.58 79H0V0H1.58V79ZM12.324 0H4.424V79.316H12.64V0H12.324ZM31.6 0H23.068V39.5H31.6V0ZM39.184 0H35.708V39.5H39.184V0ZM44.872 0H42.344V39.5H44.872V0ZM52.456 0H50.244V39.5H52.456V0ZM18.644 0H14.852V39.5H18.644V0ZM54.984 0H53.72V39.5H54.984V0ZM58.46 0H56.248V39.5H58.46V0ZM70.152 0H64.78V39.5H70.152V0ZM74.26 0H72.048V39.5H74.26V0ZM88.796 0H78.684V39.5H88.796V0ZM96.38 0H92.588V39.5H96.38V0ZM103.016 0H99.856V39.5H103.016V0ZM109.652 0H108.388V39.5H109.652V0ZM138.408 39.5H142.2V0H138.092V39.5H138.408ZM117.236 0H114.392V39.5H117.236V0ZM127.98 0H122.608V39.5H127.98V0ZM133.668 0H130.192V39.5H133.668V0ZM146.624 0H145.044V79.316H146.624V0ZM158 0H150.1V79.316H158V0Z" fill="black"/>
<path d="M1.58 79H0V39.5H1.58V79ZM12.324 39.5H4.424V79H12.64V39.5H12.324ZM31.6 39.5H23.068V79H31.6V39.5ZM39.184 39.5H35.708V79H39.184V39.5ZM44.872 39.5H42.344V79H44.872V39.5ZM52.456 39.5H50.244V79H52.456V39.5ZM18.644 39.5H14.852V79H18.644V39.5ZM54.984 39.5H53.72V79H54.984V39.5ZM58.46 39.5H56.248V79H58.46V39.5ZM70.152 39.5H64.78V79H70.152V39.5ZM74.26 39.5H72.048V79H74.26V39.5ZM88.796 39.5H78.684V79H88.796V39.5ZM96.38 39.5H92.588V79H96.38V39.5ZM103.016 39.5H99.856V79H103.016V39.5ZM109.652 39.5H108.388V79H109.652V39.5ZM138.408 79H142.2V39.5H138.092V79H138.408ZM117.236 39.5H114.392V79H117.236V39.5ZM127.98 39.5H122.608V79H127.98V39.5ZM133.668 39.5H130.192V79H133.668V39.5ZM146.624 39.5H145.044L144.685 78.5176H146.265L146.624 39.5ZM158 39.5H150.1L149.741 78.5176H157.641L158 39.5Z" fill="black"/>
</g>
<defs>
<clipPath id="clip0_149_18">
<rect width="158" height="79" fill="white"/>
</clipPath>
</defs>
</svg>
