<svg width="168" height="122" viewBox="0 0 168 122" fill="none" xmlns="http://www.w3.org/2000/svg">
<path d="M141.75 8.57812H26.25C22.0728 8.57812 18.0668 10.235 15.1131 13.1843C12.1594 16.1336 10.5 20.1337 10.5 24.3047V97.6953C10.5 101.866 12.1594 105.866 15.1131 108.816C18.0668 111.765 22.0728 113.422 26.25 113.422H141.75C145.927 113.422 149.933 111.765 152.887 108.816C155.841 105.866 157.5 101.866 157.5 97.6953V24.3047C157.5 20.1337 155.841 16.1336 152.887 13.1843C149.933 10.235 145.927 8.57812 141.75 8.57812ZM131.25 92.4531H99.75C98.3576 92.4531 97.0223 91.9008 96.0377 90.9177C95.0531 89.9346 94.5 88.6013 94.5 87.2109C94.5 85.8206 95.0531 84.4872 96.0377 83.5041C97.0223 82.521 98.3576 81.9688 99.75 81.9688H131.25C132.642 81.9688 133.978 82.521 134.962 83.5041C135.947 84.4872 136.5 85.8206 136.5 87.2109C136.5 88.6013 135.947 89.9346 134.962 90.9177C133.978 91.9008 132.642 92.4531 131.25 92.4531ZM147 55.7578H21V34.7891H147V55.7578Z" fill="black"/>
</svg>
