<?xml version="1.0" encoding="utf-8"?>
<!-- Generator: Adobe Illustrator 25.2.1, SVG Export Plug-In . SVG Version: 6.00 Build 0)  -->
<svg version="1.1" id="Camada_1" xmlns="http://www.w3.org/2000/svg" xmlns:xlink="http://www.w3.org/1999/xlink" x="0px" y="0px"
	 viewBox="0 0 273.8 226.2" style="enable-background:new 0 0 273.8 226.2;" xml:space="preserve">
<style type="text/css">
	.st0{fill:#222222;}
</style>
<path class="st0" d="M33.6,4.9c11.9,0,20.6,8.5,20.6,20.6c0,11.9-8.8,20.3-20.6,20.3C21.5,45.9,13,37.4,13,25.5
	C13,13.4,21.5,4.9,33.6,4.9z M45.1,64.5h6.6v105.1c0,20-16.2,36.2-36.1,36.2c0,0,0,0,0,0l0,0V94.1C15.5,77.8,28.8,64.5,45.1,64.5z"
	/>
<path class="st0" d="M199.4,205.8L199.4,205.8c-9.8,0-18.5-6.4-21.4-15.9l-24-80.2l-23.8,80.1c-2.8,9.4-11.5,15.9-21.3,15.9l0,0
	c-9.5,0-17.9-6-21-15L44.4,64.5h36.2l28.5,96.1l23.9-80.3c2.8-9.3,11.3-15.7,21.1-15.7l0,0c9.7,0,18.2,6.4,21,15.7l23.9,80.3
	l22.6-76c3.5-11.9,14.4-20,26.8-20h15.3l-43.2,126.2C217.3,199.8,208.9,205.8,199.4,205.8z"/>
</svg>
