<svg width="913" height="119" viewBox="0 0 913 119" fill="none" xmlns="http://www.w3.org/2000/svg">
<path d="M72.4337 3.62507V20.2865H46.4247V98.7832H26.1488V20.2865H0V3.62507H72.4337Z" fill="black"/>
<path d="M135.719 66.785H78.3878C79.4598 79.2404 85.9388 85.4681 97.8246 85.4681C106.215 85.4681 111.971 81.9824 115.094 75.0111H135.719C134.041 82.819 129.73 89.0931 122.785 93.8336C115.886 98.5741 107.566 100.944 97.8246 100.944C86.0786 100.944 76.5933 97.4819 69.3685 90.5571C62.1438 83.5858 58.5315 74.4302 58.5315 63.0902C58.5315 51.0531 62.1671 41.363 69.4385 34.0199C76.7098 26.6768 86.2884 23.0053 98.1742 23.0053C109.874 23.0517 119.126 26.3747 125.931 32.9742C132.783 39.5737 136.209 48.4273 136.209 59.5349C136.209 61.208 136.046 63.6247 135.719 66.785ZM78.9471 54.8641H116.772C115.7 43.9424 109.151 38.4815 97.1255 38.4815C86.9176 38.4815 80.8582 43.9424 78.9471 54.8641Z" fill="black"/>
<path d="M165.725 98.7832H158.593C152.394 98.7832 147.383 97.3425 143.561 94.461C139.786 91.5796 137.898 87.7918 137.898 83.0978V0H157.055V80.2396C157.055 81.1691 157.288 81.9127 157.754 82.4704C158.267 83.0281 158.943 83.307 159.782 83.307H165.725V98.7832Z" fill="black"/>
<path d="M197.548 23.0053C207.057 23.0053 214.701 25.5149 220.481 30.5343C226.307 35.5536 229.22 42.1996 229.22 50.4722V98.7832H211.671V87.8383C209.854 91.9281 206.87 95.1349 202.722 97.4587C198.574 99.7825 193.633 100.944 187.9 100.944C179.603 100.944 172.914 98.8065 167.834 94.5308C162.753 90.255 160.213 84.6083 160.213 77.5905C160.213 70.3868 163.196 64.5774 169.162 60.1623C175.128 55.7471 183.006 53.5395 192.794 53.5395H211.532C211.438 48.3808 210.296 44.593 208.106 42.1763C205.915 39.7131 202.489 38.4815 197.828 38.4815C189.251 38.4815 184.357 41.456 183.145 47.4048H163.918C164.85 40.1082 168.393 34.2291 174.546 29.7674C180.745 25.2593 188.412 23.0053 197.548 23.0053ZM191.955 85.4681C197.968 85.4681 202.629 83.7717 205.938 80.379C209.248 76.9863 211.112 72.0135 211.532 65.4605H192.934C184.264 65.4605 179.929 68.9926 179.929 76.0568C179.929 82.331 183.938 85.4681 191.955 85.4681Z" fill="black"/>
<path d="M263.421 100.944C252.421 100.944 243.844 98.5973 237.692 93.9033C231.585 89.1629 228.532 82.8655 228.532 75.0111H247.969C248.622 78.3573 250.113 80.9135 252.444 82.6796C254.775 84.4456 258.387 85.3286 263.281 85.3286C273.442 85.3286 278.523 82.5866 278.523 77.1025C278.523 74.8252 277.311 72.9895 274.887 71.5952C272.51 70.2009 267.919 68.7602 261.114 67.273C260.321 67.0871 259.133 66.8315 257.548 66.5061C255.637 66.1343 254.192 65.8555 253.213 65.6696C252.234 65.4372 250.836 65.0887 249.018 64.6239C247.247 64.1591 245.848 63.7409 244.823 63.3691C243.798 62.9973 242.516 62.486 240.978 61.8354C239.486 61.1847 238.297 60.5341 237.412 59.8834C236.526 59.1863 235.571 58.3497 234.545 57.3738C233.52 56.3978 232.727 55.3753 232.168 54.3064C231.609 53.191 231.143 51.9129 230.77 50.4722C230.397 49.0314 230.21 47.4978 230.21 45.8711C230.21 41.2236 231.562 37.157 234.266 33.6714C237.016 30.1857 240.721 27.5599 245.382 25.7938C250.09 24.0277 255.45 23.1447 261.463 23.1447C271.345 23.1447 279.502 25.422 285.934 29.9766C292.413 34.4847 295.839 40.2941 296.212 47.4048H277.474C277.474 44.6163 276.122 42.4552 273.419 40.9215C270.716 39.3413 266.94 38.5513 262.092 38.5513C253.982 38.5513 249.927 40.9447 249.927 45.7317C249.927 47.6837 250.929 49.1941 252.933 50.263C254.984 51.2855 259.273 52.5171 265.798 53.9578C273.722 55.7239 278.919 57.0252 281.389 57.8617C290.246 60.8362 295.583 65.2513 297.4 71.1072C297.96 72.8268 298.239 74.6858 298.239 76.6842C298.239 84.0273 295.023 89.9065 288.591 94.3216C282.159 98.7368 273.769 100.944 263.421 100.944Z" fill="black"/>
<path d="M352.867 119H333.779V25.0269H352.867V33.8108C355.057 30.5575 358.274 27.9549 362.515 26.0029C366.803 24.0045 371.325 23.0053 376.079 23.0053C386.054 23.0053 394.071 26.5606 400.13 33.6714C406.19 40.7356 409.22 50.1004 409.22 61.7657C409.22 73.4774 406.05 82.9352 399.711 90.1388C393.418 97.3425 385.122 100.944 374.821 100.944C370.253 100.944 365.941 100.061 361.886 98.2953C357.831 96.4827 354.824 94.1125 352.867 91.1845V119ZM357.551 79.1939C360.674 83.1443 365.242 85.1195 371.255 85.1195C377.268 85.1195 381.812 83.1443 384.889 79.1939C387.965 75.2435 389.503 69.4341 389.503 61.7657C389.503 54.1437 387.965 48.3808 384.889 44.4769C381.812 40.5265 377.268 38.5513 371.255 38.5513C365.242 38.5513 360.674 40.5265 357.551 44.4769C354.428 48.4273 352.867 54.1902 352.867 61.7657C352.867 69.4341 354.428 75.2435 357.551 79.1939Z" fill="black"/>
<path d="M444.678 23.0053C454.187 23.0053 461.831 25.5149 467.611 30.5343C473.438 35.5536 476.351 42.1996 476.351 50.4722V98.7832H458.802V87.8383C456.984 91.9281 454.001 95.1349 449.852 97.4587C445.704 99.7825 440.763 100.944 435.03 100.944C426.733 100.944 420.045 98.8065 414.964 94.5308C409.883 90.255 407.343 84.6083 407.343 77.5905C407.343 70.3868 410.326 64.5774 416.292 60.1623C422.259 55.7471 430.136 53.5395 439.924 53.5395H458.662C458.569 48.3808 457.427 44.593 455.236 42.1763C453.045 39.7131 449.619 38.4815 444.958 38.4815C436.382 38.4815 431.488 41.456 430.276 47.4048H411.049C411.981 40.1082 415.523 34.2291 421.676 29.7674C427.875 25.2593 435.543 23.0053 444.678 23.0053ZM439.085 85.4681C445.098 85.4681 449.759 83.7717 453.068 80.379C456.378 76.9863 458.242 72.0135 458.662 65.4605H440.064C431.394 65.4605 427.059 68.9926 427.059 76.0568C427.059 82.331 431.068 85.4681 439.085 85.4681Z" fill="black"/>
<path d="M500.693 98.7832H481.606V25.0269H500.693V35.6233C502.371 31.8123 504.818 28.7682 508.034 26.4909C511.25 24.1672 514.653 23.0053 518.242 23.0053C521.505 23.0053 523.812 23.6792 525.164 25.0269V43.0129C524.092 42.3622 521.388 42.0369 517.053 42.0369C511.693 42.0369 507.615 43.5009 504.818 46.4288C502.068 49.3103 500.693 53.586 500.693 59.256V98.7832Z" fill="black"/>
<path d="M555.868 23.0053C565.377 23.0053 573.021 25.5149 578.801 30.5343C584.627 35.5536 587.541 42.1996 587.541 50.4722V98.7832H569.992V87.8383C568.174 91.9281 565.191 95.1349 561.042 97.4587C556.894 99.7825 551.953 100.944 546.22 100.944C537.923 100.944 531.234 98.8065 526.154 94.5308C521.073 90.255 518.533 84.6083 518.533 77.5905C518.533 70.3868 521.516 64.5774 527.482 60.1623C533.448 55.7471 541.326 53.5395 551.114 53.5395H569.852C569.758 48.3808 568.617 44.593 566.426 42.1763C564.235 39.7131 560.809 38.4815 556.148 38.4815C547.572 38.4815 542.677 41.456 541.466 47.4048H522.238C523.171 40.1082 526.713 34.2291 532.866 29.7674C539.065 25.2593 546.733 23.0053 555.868 23.0053ZM550.275 85.4681C556.288 85.4681 560.949 83.7717 564.258 80.379C567.568 76.9863 569.432 72.0135 569.852 65.4605H551.254C542.584 65.4605 538.249 68.9926 538.249 76.0568C538.249 82.331 542.258 85.4681 550.275 85.4681Z" fill="black"/>
<path d="M669.785 25.0269V40.5032H653.774V80.3093C653.774 81.1923 654.194 81.9127 655.033 82.4704C655.872 83.0281 656.967 83.307 658.319 83.307H669.785V98.7832H653.145C647.598 98.7832 643.123 97.1566 639.721 93.9033C636.365 90.6501 634.687 86.3279 634.687 80.9367V40.5032H621.892V25.0269H634.687V8.01699H653.774V25.0269H669.785Z" fill="black"/>
<path d="M696.225 100.944C687.695 100.944 680.82 98.2023 675.599 92.7182C670.379 87.2341 667.769 80.0072 667.769 71.0375V25.0269H686.856V66.9244C686.856 73.0592 688.091 77.6835 690.561 80.7973C693.032 83.9111 696.668 85.4681 701.468 85.4681C707.248 85.4681 711.63 83.6091 714.613 79.891C717.596 76.1265 719.087 70.5727 719.087 63.2296V25.0269H738.175V98.7832H719.087V88.4657C716.897 92.2302 713.704 95.2511 709.509 97.5284C705.314 99.8057 700.886 100.944 696.225 100.944Z" fill="black"/>
<path d="M771.396 100.944C761.608 100.944 753.707 97.4122 747.695 90.348C741.682 83.2373 738.675 73.8725 738.675 62.2537C738.675 50.4489 741.682 40.968 747.695 33.8108C753.754 26.6071 761.725 23.0053 771.606 23.0053C776.407 23.0053 780.952 24.0045 785.24 26.0029C789.575 28.0014 792.884 30.6505 795.168 33.9502V0H814.115V98.7832H795.168V90.2085C793.583 93.4153 790.6 96.018 786.219 98.0164C781.837 99.9684 776.896 100.944 771.396 100.944ZM776.78 85.6075C782.793 85.6075 787.361 83.6323 790.484 79.6819C793.607 75.7315 795.168 69.9221 795.168 62.2537C795.168 54.4458 793.607 48.5434 790.484 44.5466C787.361 40.5032 782.793 38.4815 776.78 38.4815C770.674 38.4815 766.059 40.5032 762.936 44.5466C759.813 48.5434 758.252 54.4458 758.252 62.2537C758.252 69.9221 759.813 75.7315 762.936 79.6819C766.059 83.6323 770.674 85.6075 776.78 85.6075Z" fill="black"/>
<path d="M879.429 90.1388C872.577 97.3425 863.511 100.944 852.231 100.944C840.951 100.944 831.862 97.3425 824.964 90.1388C818.065 82.9352 814.616 73.4774 814.616 61.7657C814.616 50.1004 818.065 40.7356 824.964 33.6714C831.862 26.5606 840.951 23.0053 852.231 23.0053C863.511 23.0053 872.577 26.5606 879.429 33.6714C886.327 40.7356 889.776 50.1004 889.776 61.7657C889.776 73.4774 886.327 82.9352 879.429 90.1388ZM838.807 79.403C841.837 83.3534 846.312 85.3286 852.231 85.3286C858.151 85.3286 862.602 83.3534 865.585 79.403C868.615 75.4062 870.13 69.527 870.13 61.7657C870.13 54.0972 868.615 48.3111 865.585 44.4071C862.602 40.4567 858.151 38.4815 852.231 38.4815C846.312 38.4815 841.837 40.4567 838.807 44.4071C835.824 48.3111 834.333 54.0972 834.333 61.7657C834.333 69.527 835.824 75.4062 838.807 79.403Z" fill="black"/>
<path d="M909.085 97.3193C906.521 99.736 903.445 100.944 899.856 100.944C896.267 100.944 893.167 99.736 890.557 97.3193C887.993 94.8561 886.711 91.9049 886.711 88.4657C886.711 85.073 888.016 82.1451 890.627 79.6819C893.237 77.1722 896.313 75.9174 899.856 75.9174C903.398 75.9174 906.474 77.1722 909.085 79.6819C911.695 82.1451 913 85.073 913 88.4657C913 91.9049 911.695 94.8561 909.085 97.3193Z" fill="black"/>
</svg>
