<svg width="32" height="32" viewBox="0 0 32 32" fill="none" xmlns="http://www.w3.org/2000/svg">
<rect width="32" height="32" rx="8" fill="#464646"/>
<path d="M6.49684 6.66406C7.60998 6.66406 8.41141 7.45697 8.41141 8.55824C8.41141 9.65949 7.5877 10.4304 6.49684 10.4304C5.36145 10.4304 4.58228 9.63747 4.58228 8.55824C4.58228 7.45697 5.36145 6.66406 6.49684 6.66406ZM7.56545 12.1704H8.18879V21.8835C8.18879 23.7336 6.67495 25.2313 4.8049 25.2313V14.9015C4.8049 13.4038 6.0516 12.1704 7.56545 12.1704Z" fill="white"/>
<path d="M21.9697 25.2089C21.0569 25.2089 20.2331 24.6141 19.9883 23.7332L17.7397 16.3327L15.5135 23.7332C15.2464 24.6141 14.4449 25.2089 13.5321 25.2089C12.6416 25.2089 11.8624 24.6581 11.573 23.8213L7.52124 12.1699H10.9051L13.5766 21.0461L15.8029 13.6236C16.0701 12.7646 16.8715 12.1699 17.762 12.1699C18.6748 12.1699 19.4762 12.7646 19.7211 13.6236L21.9474 21.0461L24.04 14.02C24.374 12.9188 25.3981 12.1699 26.5334 12.1699H27.9582L23.9287 23.8213C23.6616 24.6581 22.8601 25.2089 21.9697 25.2089Z" fill="white"/>
</svg>
