<svg width="155" height="155" viewBox="0 0 155 155" fill="none" xmlns="http://www.w3.org/2000/svg">
<path d="M38.4273 38.7499H36.2314L62.1939 12.7874C70.6544 4.35928 84.346 4.35928 92.8064 12.7874L118.769 38.7499H116.573C111.406 38.7499 106.53 40.752 102.881 44.4332L80.9231 66.2947C79.0179 68.1999 75.9825 68.1999 74.0773 66.2947L52.1189 44.4332C48.47 40.752 43.5939 38.7499 38.4273 38.7499Z" fill="#4DB6AC"/>
<path d="M116.573 116.25H118.769L92.8064 142.213C84.346 150.641 70.6544 150.641 62.1939 142.213L36.2314 116.25H38.4273C43.5939 116.25 48.47 114.248 52.1189 110.567L74.0773 88.7053C75.9825 86.8001 79.0179 86.8001 80.9231 88.7053L102.881 110.567C106.53 114.248 111.406 116.25 116.573 116.25Z" fill="#4DB6AC"/>
<path d="M142.213 92.8064L125.227 109.792H116.573C113.118 109.792 109.889 108.436 107.435 106.014L85.4764 84.12C81.0848 79.7283 73.916 79.7283 69.5243 84.12L47.566 106.014C45.1118 108.436 41.8827 109.792 38.4275 109.792H29.7733L12.7879 92.8064C4.35977 84.346 4.35977 70.6543 12.7879 62.1939L29.7733 45.2085H38.4275C41.8827 45.2085 45.1118 46.5647 47.566 48.9866L69.5243 70.8804C71.7202 73.0762 74.6264 74.1741 77.5004 74.1741C80.3743 74.1741 83.2806 73.0762 85.4764 70.8804L107.435 48.9866C109.889 46.5647 113.118 45.2085 116.573 45.2085H125.227L142.213 62.1939C150.641 70.6543 150.641 84.346 142.213 92.8064Z" fill="#4DB6AC"/>
</svg>
