<svg xmlns="http://www.w3.org/2000/svg" version="1.1" xmlns:xlink="http://www.w3.org/1999/xlink" width="512" height="512" x="0" y="0" viewBox="0 0 64 64" style="enable-background:new 0 0 512 512" xml:space="preserve"><g><circle cx="17" cy="7" r="1.5" fill="#ffffff" opacity="1" data-original="#000000"></circle><circle cx="20" cy="17" r="2.5" fill="#ffffff" opacity="1" data-original="#000000"></circle><circle cx="54" cy="35" r="2.5" fill="#ffffff" opacity="1" data-original="#000000"></circle><path d="M45.968 41.785h-4.075a.5.5 0 0 1-.415-.779l1.305-1.943a2.062 2.062 0 0 0-.579-2.849c-.895-.585-2.109-.383-2.743.421l-3.969 4.962a.502.502 0 0 1-.391.188l-5.376.001a.5.5 0 0 1-.5-.493l-.036-2.702a.498.498 0 0 1 .188-.397l4.958-3.967a2.033 2.033 0 0 0 .427-2.741c-.598-.914-1.939-1.183-2.854-.579l-1.939 1.301a.5.5 0 0 1-.779-.415v-4.075c0-1.223-.994-2.217-2.217-2.217s-2.217.994-2.217 2.217v4.075a.5.5 0 0 1-.779.415l-1.942-1.304a2.074 2.074 0 0 0-1.548-.299 2.017 2.017 0 0 0-1.301.878 2.123 2.123 0 0 0-.353 1.151c0 .625.281 1.204.772 1.59l4.962 3.97a.502.502 0 0 1 .188.383l.041 2.702a.497.497 0 0 1-.5.507l-5.456-.001a.5.5 0 0 1-.391-.188l-3.966-4.959c-.638-.809-1.854-1.009-2.745-.424-.458.3-.77.762-.878 1.301a2.072 2.072 0 0 0 .302 1.552l1.301 1.939a.5.5 0 0 1-.415.779H7.973c-1.223 0-2.217.994-2.217 2.217s.994 2.217 2.217 2.217h4.075a.5.5 0 0 1 .415.779l-1.304 1.942a2.067 2.067 0 0 0-.336 1.134c0 .698.342 1.34.915 1.715a2.037 2.037 0 0 0 2.744-.422l3.967-4.96a.502.502 0 0 1 .391-.188l5.456-.005a.501.501 0 0 1 .5.507l-.041 2.702a.5.5 0 0 1-.188.383l-4.958 3.967a2.011 2.011 0 0 0-.776 1.593c0 .396.125.805.353 1.151.3.458.762.77 1.301.878a2.091 2.091 0 0 0 1.552-.302l1.938-1.301a.494.494 0 0 1 .513-.026.5.5 0 0 1 .265.441v4.075c0 1.223.994 2.217 2.217 2.217s2.217-.994 2.217-2.217v-4.075a.5.5 0 0 1 .779-.415l1.942 1.304c.911.598 2.255.329 2.85-.579.6-.9.417-2.078-.423-2.743l-4.96-3.968a.506.506 0 0 1-.188-.397l.036-2.702a.5.5 0 0 1 .5-.493l5.376.004a.5.5 0 0 1 .391.188l3.967 4.959a2.033 2.033 0 0 0 2.741.426 2.04 2.04 0 0 0 .919-1.717c0-.406-.117-.8-.339-1.138l-1.302-1.939a.5.5 0 0 1 .415-.779h4.075a2.219 2.219 0 0 0 2.217-2.216 2.22 2.22 0 0 0-2.217-2.217z" fill="#ffffff" opacity="1" data-original="#000000"></path><circle cx="60" cy="46" r="1.5" fill="#ffffff" opacity="1" data-original="#000000"></circle><circle cx="10" cy="24" r="1.5" fill="#ffffff" opacity="1" data-original="#000000"></circle><path d="M46.661 19.382a.506.506 0 0 1-.188-.397l.026-1.991A.502.502 0 0 1 47 16.5l3.961.003a.5.5 0 0 1 .391.188l2.923 3.653a1.37 1.37 0 0 0 1.845.287 1.37 1.37 0 0 0 .618-1.155c0-.273-.079-.539-.229-.767l-.958-1.428a.5.5 0 0 1 .415-.779h3.003c.828 0 1.502-.674 1.502-1.502s-.674-1.502-1.502-1.502h-3.003a.5.5 0 0 1-.415-.779l.961-1.431a1.388 1.388 0 0 0-.39-1.917c-.604-.395-1.42-.258-1.846.281l-2.925 3.657a.502.502 0 0 1-.391.188L47 13.5a.5.5 0 0 1-.5-.493l-.026-1.991a.498.498 0 0 1 .188-.397l3.653-2.922a1.37 1.37 0 0 0 .287-1.845c-.401-.614-1.304-.797-1.923-.39l-1.427.958a.5.5 0 0 1-.779-.415V3.002c0-.828-.674-1.502-1.502-1.502s-1.501.674-1.501 1.502v3.003a.5.5 0 0 1-.779.415l-1.431-.961c-.307-.2-.679-.273-1.042-.2a1.353 1.353 0 0 0-.874.589 1.446 1.446 0 0 0-.238.777c0 .419.189.809.521 1.069l3.656 2.924a.502.502 0 0 1 .188.383l.03 1.991A.5.5 0 0 1 43 13.5l-4.021-.001a.5.5 0 0 1-.391-.188l-2.923-3.653c-.43-.546-1.25-.679-1.846-.284a1.351 1.351 0 0 0-.591.874c-.073.363-.001.734.203 1.046l.957 1.427a.5.5 0 0 1-.415.779h-3.002c-.828 0-1.502.674-1.502 1.502s.674 1.502 1.502 1.502h3.002a.5.5 0 0 1 .415.779l-.96 1.432a1.395 1.395 0 0 0-.226.763c0 .47.229.901.614 1.153a1.368 1.368 0 0 0 1.847-.283l2.924-3.655a.502.502 0 0 1 .391-.188L43 16.5a.501.501 0 0 1 .5.507l-.03 1.991a.5.5 0 0 1-.188.383l-3.653 2.922a1.354 1.354 0 0 0-.523 1.071c0 .267.085.542.238.776a1.386 1.386 0 0 0 1.92.387l1.428-.958a.494.494 0 0 1 .513-.026.5.5 0 0 1 .265.441v3.003c0 .828.674 1.502 1.502 1.502s1.502-.674 1.502-1.502v-3.003a.5.5 0 0 1 .779-.415l1.431.961c.609.398 1.519.22 1.917-.389a1.373 1.373 0 0 0-.283-1.848z" fill="#ffffff" opacity="1" data-original="#000000"></path><circle cx="17" cy="24" r="1" fill="#ffffff" opacity="1" data-original="#000000"></circle><circle cx="53" cy="44" r="1" fill="#ffffff" opacity="1" data-original="#000000"></circle><circle cx="60" cy="28" r="1" fill="#ffffff" opacity="1" data-original="#000000"></circle><circle cx="12" cy="13" r="1" fill="#ffffff" opacity="1" data-original="#000000"></circle><circle cx="25" cy="8" r="1" fill="#ffffff" opacity="1" data-original="#000000"></circle></g></svg>