<svg width="256" height="256" viewBox="0 0 256 256" fill="none" xmlns="http://www.w3.org/2000/svg">
<rect width="256" height="256" rx="20" fill="#464646"/>
<path d="M49.2605 40.4121C58.4837 40.4121 65.1241 46.8743 65.1241 55.8496C65.1241 64.8249 58.2991 71.1076 49.2605 71.1076C39.853 71.1076 33.397 64.6454 33.397 55.8496C33.397 46.8743 39.853 40.4121 49.2605 40.4121ZM58.1147 85.2886H63.2795V164.451C63.2795 179.529 50.7363 191.735 35.2416 191.735V107.547C35.2416 95.3408 45.5713 85.2886 58.1147 85.2886Z" fill="white"/>
<path d="M177.463 191.555C169.9 191.555 163.074 186.708 161.046 179.529L142.415 119.215L123.969 179.529C121.755 186.708 115.115 191.555 107.552 191.555C100.173 191.555 93.7173 187.067 91.3193 180.247L57.7473 85.2881H85.7854L107.921 157.629L126.367 97.1354C128.58 90.1347 135.221 85.2881 142.599 85.2881C150.162 85.2881 156.803 90.1347 158.832 97.1354L177.278 157.629L194.617 100.366C197.385 91.3913 205.87 85.2881 215.277 85.2881H227.082L193.695 180.247C191.482 187.067 184.841 191.555 177.463 191.555Z" fill="white"/>
</svg>
